<svg xmlns="http://www.w3.org/2000/svg" viewBox="0 0 1200 630" fill="none">
  <rect width="1200" height="630" fill="#FAFAFA"/>
  <!-- Title -->
  <text x="100" y="70" fill="#111111" font-family="system-ui,sans-serif" font-size="24" font-weight="700">GTM Engineering Benchmarks</text>
  <text x="100" y="100" fill="#6B6B6B" font-family="system-ui,sans-serif" font-size="15">Survey-backed performance data from 228 practitioners</text>
  <rect x="100" y="118" width="60" height="3" rx="1.5" fill="#FF4F1F"/>
  <!-- Dashboard-style metric grid -->
  <!-- Row 1 -->
  <rect x="100" y="160" width="240" height="130" rx="10" fill="#FFFFFF" stroke="#E5E5E5" stroke-width="1"/>
  <text x="130" y="195" fill="#9B9B9B" font-family="system-ui,sans-serif" font-size="11" font-weight="600" letter-spacing="1">SURVEY SIZE</text>
  <text x="130" y="240" fill="#111111" font-family="system-ui,sans-serif" font-size="36" font-weight="700">228</text>
  <text x="130" y="268" fill="#6B6B6B" font-family="system-ui,sans-serif" font-size="13">respondents, 32 countries</text>
  <rect x="370" y="160" width="240" height="130" rx="10" fill="#FFFFFF" stroke="#E5E5E5" stroke-width="1"/>
  <text x="400" y="195" fill="#9B9B9B" font-family="system-ui,sans-serif" font-size="11" font-weight="600" letter-spacing="1">MEDIAN AGE</text>
  <text x="400" y="240" fill="#FF4F1F" font-family="system-ui,sans-serif" font-size="36" font-weight="700">25</text>
  <text x="400" y="268" fill="#6B6B6B" font-family="system-ui,sans-serif" font-size="13">youngest tech function</text>
  <rect x="640" y="160" width="240" height="130" rx="10" fill="#FFFFFF" stroke="#E5E5E5" stroke-width="1"/>
  <text x="670" y="195" fill="#9B9B9B" font-family="system-ui,sans-serif" font-size="11" font-weight="600" letter-spacing="1">SELF-TAUGHT</text>
  <text x="670" y="240" fill="#FF4F1F" font-family="system-ui,sans-serif" font-size="36" font-weight="700">53%</text>
  <text x="670" y="268" fill="#6B6B6B" font-family="system-ui,sans-serif" font-size="13">no formal training</text>
  <rect x="910" y="160" width="190" height="130" rx="10" fill="#FFF0EB" stroke="#FF4F1F" stroke-width="1.5"/>
  <text x="940" y="195" fill="#FF4F1F" font-family="system-ui,sans-serif" font-size="11" font-weight="600" letter-spacing="1">CLAY ADOPTION</text>
  <text x="940" y="240" fill="#FF4F1F" font-family="system-ui,sans-serif" font-size="36" font-weight="700">84%</text>
  <text x="940" y="268" fill="#6B6B6B" font-family="system-ui,sans-serif" font-size="13">core tool</text>
  <!-- Row 2 - Mini bar charts -->
  <rect x="100" y="320" width="510" height="200" rx="10" fill="#FFFFFF" stroke="#E5E5E5" stroke-width="1"/>
  <text x="130" y="355" fill="#111111" font-family="system-ui,sans-serif" font-size="14" font-weight="600">Work Hours Distribution</text>
  <!-- Bars -->
  <text x="130" y="388" fill="#6B6B6B" font-family="system-ui,sans-serif" font-size="12">&lt;40 hrs</text>
  <rect x="220" y="376" width="100" height="16" rx="3" fill="#FF4F1F" opacity="0.3"/>
  <text x="330" y="389" fill="#9B9B9B" font-family="system-ui,sans-serif" font-size="11">18%</text>
  <text x="130" y="418" fill="#6B6B6B" font-family="system-ui,sans-serif" font-size="12">40-50 hrs</text>
  <rect x="220" y="406" width="300" height="16" rx="3" fill="#FF4F1F" opacity="0.7"/>
  <text x="530" y="419" fill="#9B9B9B" font-family="system-ui,sans-serif" font-size="11">42%</text>
  <text x="130" y="448" fill="#6B6B6B" font-family="system-ui,sans-serif" font-size="12">50-60 hrs</text>
  <rect x="220" y="436" width="200" height="16" rx="3" fill="#FF4F1F" opacity="0.6"/>
  <text x="430" y="449" fill="#9B9B9B" font-family="system-ui,sans-serif" font-size="11">28%</text>
  <text x="130" y="478" fill="#6B6B6B" font-family="system-ui,sans-serif" font-size="12">60+ hrs</text>
  <rect x="220" y="466" width="86" height="16" rx="3" fill="#FF4F1F" opacity="0.4"/>
  <text x="316" y="479" fill="#9B9B9B" font-family="system-ui,sans-serif" font-size="11">12%</text>
  <!-- Donut chart placeholder -->
  <rect x="640" y="320" width="460" height="200" rx="10" fill="#FFFFFF" stroke="#E5E5E5" stroke-width="1"/>
  <text x="670" y="355" fill="#111111" font-family="system-ui,sans-serif" font-size="14" font-weight="600">Reporting Structure</text>
  <!-- Simple pie segments -->
  <circle cx="800" cy="430" r="60" fill="none" stroke="#FF4F1F" stroke-width="20" stroke-dasharray="145 232" stroke-dashoffset="0" opacity="0.9"/>
  <circle cx="800" cy="430" r="60" fill="none" stroke="#FF4F1F" stroke-width="20" stroke-dasharray="95 282" stroke-dashoffset="-145" opacity="0.5"/>
  <circle cx="800" cy="430" r="60" fill="none" stroke="#FF4F1F" stroke-width="20" stroke-dasharray="75 302" stroke-dashoffset="-240" opacity="0.3"/>
  <circle cx="800" cy="430" r="40" fill="#FFFFFF"/>
  <!-- Legend -->
  <rect x="900" y="400" width="10" height="10" rx="2" fill="#FF4F1F" opacity="0.9"/>
  <text x="918" y="410" fill="#6B6B6B" font-family="system-ui,sans-serif" font-size="12">Sales (38%)</text>
  <rect x="900" y="425" width="10" height="10" rx="2" fill="#FF4F1F" opacity="0.5"/>
  <text x="918" y="435" fill="#6B6B6B" font-family="system-ui,sans-serif" font-size="12">Marketing (25%)</text>
  <rect x="900" y="450" width="10" height="10" rx="2" fill="#FF4F1F" opacity="0.3"/>
  <text x="918" y="460" fill="#6B6B6B" font-family="system-ui,sans-serif" font-size="12">RevOps (20%)</text>
  <!-- Footer -->
  <text x="600" y="570" fill="#6B6B6B" font-family="system-ui,sans-serif" font-size="13" text-anchor="middle">State of GTM Engineering Report 2026</text>
</svg>