<svg xmlns="http://www.w3.org/2000/svg" viewBox="0 0 1200 630" width="1200" height="630">
<rect width="1200" height="630" fill="#FAFAFA"/>
<rect x="0" y="0" width="1200" height="6" fill="#FF4F1F"/>
<text x="60" y="52" font-family="Sora, sans-serif" font-size="26" font-weight="700" fill="#111111">LinkedIn Sales Navigator Alternatives</text>

<rect x="80.0" y="109" width="500" height="100" rx="10" fill="white" stroke="#E5E5E5" stroke-width="1"/>
<circle cx="116.0" cy="159.0" r="18" fill="#ffede8"/>
<text x="116.0" y="164.0" text-anchor="middle" font-size="16" fill="#FF4F1F">◉</text>
<text x="148.0" y="147" font-family="Sora, sans-serif" font-size="16" font-weight="600" fill="#111111"></text>
<text x="148.0" y="171" font-family="Plus Jakarta Sans, sans-serif" font-size="13" fill="#6B6B6B">Feature 1</text>
<rect x="620.0" y="109" width="500" height="100" rx="10" fill="white" stroke="#E5E5E5" stroke-width="1"/>
<circle cx="656.0" cy="159.0" r="18" fill="#ffede8"/>
<text x="656.0" y="164.0" text-anchor="middle" font-size="16" fill="#FF4F1F">◆</text>
<text x="688.0" y="147" font-family="Sora, sans-serif" font-size="16" font-weight="600" fill="#111111"></text>
<text x="688.0" y="171" font-family="Plus Jakarta Sans, sans-serif" font-size="13" fill="#6B6B6B">Feature 2</text>
<rect x="80.0" y="229" width="500" height="100" rx="10" fill="white" stroke="#E5E5E5" stroke-width="1"/>
<circle cx="116.0" cy="279.0" r="18" fill="#ffede8"/>
<text x="116.0" y="284.0" text-anchor="middle" font-size="16" fill="#FF4F1F">▲</text>
<text x="148.0" y="267" font-family="Sora, sans-serif" font-size="16" font-weight="600" fill="#111111"></text>
<text x="148.0" y="291" font-family="Plus Jakarta Sans, sans-serif" font-size="13" fill="#6B6B6B">Feature 3</text>
<rect x="620.0" y="229" width="500" height="100" rx="10" fill="white" stroke="#E5E5E5" stroke-width="1"/>
<circle cx="656.0" cy="279.0" r="18" fill="#ffede8"/>
<text x="656.0" y="284.0" text-anchor="middle" font-size="16" fill="#FF4F1F">■</text>
<text x="688.0" y="267" font-family="Sora, sans-serif" font-size="16" font-weight="600" fill="#111111"></text>
<text x="688.0" y="291" font-family="Plus Jakarta Sans, sans-serif" font-size="13" fill="#6B6B6B">Feature 4</text>

</svg>