<svg xmlns="http://www.w3.org/2000/svg" viewBox="0 0 1200 630" width="1200" height="630">
<defs>
<pattern id="dots" x="0" y="0" width="40" height="40" patternUnits="userSpaceOnUse">
<circle cx="20" cy="20" r="1.2" fill="#FF4F1F" opacity="0.06"/>
</pattern>
</defs>
<rect width="1200" height="630" fill="#FAFAFA"/>
<rect width="1200" height="630" fill="url(#dots)"/>
<rect x="0" y="0" width="1200" height="5" fill="#FF4F1F"/>
<text x="60" y="48" font-family="Sora, sans-serif" font-size="22" font-weight="700" fill="#111111">Best NPI Data Tools for Healthcare GTM Teams in</text>
<text x="60" y="76" font-family="Sora, sans-serif" font-size="22" font-weight="700" fill="#111111">2026</text>
<rect x="68.0" y="120" width="520" height="100" rx="8" fill="white" stroke="#E5E5E5" stroke-width="1"/>
<rect x="68.0" y="120" width="4" height="100" rx="2" fill="#FF4F1F" opacity="0.7"/>
<text x="92.0" y="172.0" font-size="20" fill="#FF4F1F" opacity="0.6">◈</text>
<text x="120.0" y="175.0" font-family="Sora, sans-serif" font-size="15" font-weight="500" fill="#111111">#1: Provyx</text>
<rect x="612.0" y="120" width="520" height="100" rx="8" fill="white" stroke="#E5E5E5" stroke-width="1"/>
<rect x="612.0" y="120" width="4" height="100" rx="2" fill="#FF4F1F" opacity="0.7"/>
<text x="636.0" y="172.0" font-size="20" fill="#FF4F1F" opacity="0.6">◇</text>
<text x="664.0" y="175.0" font-family="Sora, sans-serif" font-size="15" font-weight="500" fill="#111111">#2: NPPES Free Download</text>
<rect x="68.0" y="236" width="520" height="100" rx="8" fill="white" stroke="#E5E5E5" stroke-width="1"/>
<rect x="68.0" y="236" width="4" height="100" rx="2" fill="#FF4F1F" opacity="0.7"/>
<text x="92.0" y="288.0" font-size="20" fill="#FF4F1F" opacity="0.6">△</text>
<text x="120.0" y="291.0" font-family="Sora, sans-serif" font-size="15" font-weight="500" fill="#111111">#3: Definitive Healthcare</text>
<rect x="612.0" y="236" width="520" height="100" rx="8" fill="white" stroke="#E5E5E5" stroke-width="1"/>
<rect x="612.0" y="236" width="4" height="100" rx="2" fill="#FF4F1F" opacity="0.7"/>
<text x="636.0" y="288.0" font-size="20" fill="#FF4F1F" opacity="0.6">□</text>
<text x="664.0" y="291.0" font-family="Sora, sans-serif" font-size="15" font-weight="500" fill="#111111">#4: ZoomInfo [Full Review]</text>
<rect x="68.0" y="352" width="520" height="100" rx="8" fill="white" stroke="#E5E5E5" stroke-width="1"/>
<rect x="68.0" y="352" width="4" height="100" rx="2" fill="#FF4F1F" opacity="0.7"/>
<text x="92.0" y="404.0" font-size="20" fill="#FF4F1F" opacity="0.6">○</text>
<text x="120.0" y="407.0" font-family="Sora, sans-serif" font-size="15" font-weight="500" fill="#111111">#5: Ribbon Health</text>
<rect x="612.0" y="352" width="520" height="100" rx="8" fill="white" stroke="#E5E5E5" stroke-width="1"/>
<rect x="612.0" y="352" width="4" height="100" rx="2" fill="#FF4F1F" opacity="0.7"/>
<text x="636.0" y="404.0" font-size="20" fill="#FF4F1F" opacity="0.6">☆</text>
<text x="664.0" y="407.0" font-family="Sora, sans-serif" font-size="15" font-weight="500" fill="#111111">#6: Doximity</text>

<text x="1150" y="612" text-anchor="end" font-family="Plus Jakarta Sans, sans-serif" font-size="10" fill="#6B6B6B" opacity="0.4">Source: State of GTME Report 2026 (n=228)</text>
</svg>