<svg xmlns="http://www.w3.org/2000/svg" viewBox="0 0 1200 630" fill="none">
  <rect width="1200" height="630" fill="#FAFAFA"/>
  <!-- Title -->
  <text x="100" y="70" fill="#111111" font-family="system-ui,sans-serif" font-size="24" font-weight="700">The GTME Pulse Blog</text>
  <text x="100" y="100" fill="#6B6B6B" font-family="system-ui,sans-serif" font-size="15">Opinion, analysis, and hot takes on GTM engineering</text>
  <rect x="100" y="118" width="60" height="3" rx="1.5" fill="#FF4F1F"/>
  <!-- Article cards layout -->
  <!-- Featured article -->
  <rect x="100" y="160" width="540" height="280" rx="10" fill="#FFFFFF" stroke="#E5E5E5" stroke-width="1"/>
  <rect x="120" y="185" width="70" height="22" rx="4" fill="#FFF0EB"/>
  <text x="155" y="200" fill="#FF4F1F" font-family="system-ui,sans-serif" font-size="11" font-weight="600" text-anchor="middle">FEATURED</text>
  <text x="120" y="240" fill="#111111" font-family="system-ui,sans-serif" font-size="20" font-weight="700">The $45K Coding Premium</text>
  <text x="120" y="268" fill="#111111" font-family="system-ui,sans-serif" font-size="20" font-weight="700">Is Real. Here's the Data.</text>
  <text x="120" y="300" fill="#6B6B6B" font-family="system-ui,sans-serif" font-size="14">GTM Engineers who code earn $45K more on</text>
  <text x="120" y="320" fill="#6B6B6B" font-family="system-ui,sans-serif" font-size="14">average. But the split is bimodal, not linear.</text>
  <rect x="120" y="350" width="100" height="30" rx="6" fill="#FF4F1F"/>
  <text x="170" y="370" fill="#FFFFFF" font-family="system-ui,sans-serif" font-size="13" font-weight="600" text-anchor="middle">Read More</text>
  <text x="120" y="420" fill="#9B9B9B" font-family="system-ui,sans-serif" font-size="12">By Rome Thorndike  |  8 min read</text>
  <!-- Side articles -->
  <rect x="670" y="160" width="430" height="86" rx="8" fill="#FFFFFF" stroke="#E5E5E5" stroke-width="1"/>
  <rect x="670" y="160" width="4" height="86" rx="2" fill="#FF4F1F"/>
  <text x="694" y="190" fill="#111111" font-family="system-ui,sans-serif" font-size="15" font-weight="600">Gen Z Built This Function</text>
  <text x="694" y="212" fill="#6B6B6B" font-family="system-ui,sans-serif" font-size="12">Median age 25. Why youth drives GTM engineering.</text>
  <text x="694" y="232" fill="#9B9B9B" font-family="system-ui,sans-serif" font-size="11">5 min read</text>
  <rect x="670" y="262" width="430" height="86" rx="8" fill="#FFFFFF" stroke="#E5E5E5" stroke-width="1"/>
  <rect x="670" y="262" width="4" height="86" rx="2" fill="#FF4F1F" opacity="0.7"/>
  <text x="694" y="292" fill="#111111" font-family="system-ui,sans-serif" font-size="15" font-weight="600">Clay: Love It and Hate It</text>
  <text x="694" y="314" fill="#6B6B6B" font-family="system-ui,sans-serif" font-size="12">84% adoption. Also the most frustrating tool.</text>
  <text x="694" y="334" fill="#9B9B9B" font-family="system-ui,sans-serif" font-size="11">6 min read</text>
  <rect x="670" y="364" width="430" height="86" rx="8" fill="#FFFFFF" stroke="#E5E5E5" stroke-width="1"/>
  <rect x="670" y="364" width="4" height="86" rx="2" fill="#FF4F1F" opacity="0.5"/>
  <text x="694" y="394" fill="#111111" font-family="system-ui,sans-serif" font-size="15" font-weight="600">The Equity Gap Nobody Talks About</text>
  <text x="694" y="416" fill="#6B6B6B" font-family="system-ui,sans-serif" font-size="12">30% have zero equity. The compensation blind spot.</text>
  <text x="694" y="436" fill="#9B9B9B" font-family="system-ui,sans-serif" font-size="11">7 min read</text>
  <!-- Bottom tag strip -->
  <rect x="100" y="490" width="90" height="28" rx="14" fill="#FFFFFF" stroke="#E5E5E5" stroke-width="1"/>
  <text x="145" y="508" fill="#6B6B6B" font-family="system-ui,sans-serif" font-size="12" text-anchor="middle">Salaries</text>
  <rect x="200" y="490" width="72" height="28" rx="14" fill="#FFFFFF" stroke="#E5E5E5" stroke-width="1"/>
  <text x="236" y="508" fill="#6B6B6B" font-family="system-ui,sans-serif" font-size="12" text-anchor="middle">Tools</text>
  <rect x="282" y="490" width="84" height="28" rx="14" fill="#FFFFFF" stroke="#E5E5E5" stroke-width="1"/>
  <text x="324" y="508" fill="#6B6B6B" font-family="system-ui,sans-serif" font-size="12" text-anchor="middle">Careers</text>
  <rect x="376" y="490" width="76" height="28" rx="14" fill="#FFF0EB" stroke="#FF4F1F" stroke-width="1"/>
  <text x="414" y="508" fill="#FF4F1F" font-family="system-ui,sans-serif" font-size="12" font-weight="600" text-anchor="middle">Data</text>
  <rect x="462" y="490" width="90" height="28" rx="14" fill="#FFFFFF" stroke="#E5E5E5" stroke-width="1"/>
  <text x="507" y="508" fill="#6B6B6B" font-family="system-ui,sans-serif" font-size="12" text-anchor="middle">Opinion</text>
</svg>