<svg xmlns="http://www.w3.org/2000/svg" viewBox="0 0 1200 630" fill="none">
  <rect width="1200" height="630" fill="#FAFAFA"/>
  <!-- Title -->
  <text x="100" y="70" fill="#111111" font-family="system-ui,sans-serif" font-size="24" font-weight="700">GTM Engineering Glossary</text>
  <text x="100" y="100" fill="#6B6B6B" font-family="system-ui,sans-serif" font-size="15">Technical terms, acronyms, and concepts defined</text>
  <rect x="100" y="118" width="60" height="3" rx="1.5" fill="#FF4F1F"/>
  <!-- Term cards in a grid -->
  <!-- Row 1 -->
  <rect x="100" y="160" width="320" height="90" rx="8" fill="#FFFFFF" stroke="#E5E5E5" stroke-width="1"/>
  <rect x="100" y="160" width="4" height="90" rx="2" fill="#FF4F1F"/>
  <text x="124" y="190" fill="#FF4F1F" font-family="monospace" font-size="13" font-weight="600">ICP</text>
  <text x="124" y="212" fill="#111111" font-family="system-ui,sans-serif" font-size="14" font-weight="600">Ideal Customer Profile</text>
  <text x="124" y="232" fill="#6B6B6B" font-family="system-ui,sans-serif" font-size="12">Data-driven buyer definition</text>
  <rect x="440" y="160" width="320" height="90" rx="8" fill="#FFFFFF" stroke="#E5E5E5" stroke-width="1"/>
  <rect x="440" y="160" width="4" height="90" rx="2" fill="#FF4F1F"/>
  <text x="464" y="190" fill="#FF4F1F" font-family="monospace" font-size="13" font-weight="600">MQL</text>
  <text x="464" y="212" fill="#111111" font-family="system-ui,sans-serif" font-size="14" font-weight="600">Marketing Qualified Lead</text>
  <text x="464" y="232" fill="#6B6B6B" font-family="system-ui,sans-serif" font-size="12">Intent-scored prospect</text>
  <rect x="780" y="160" width="320" height="90" rx="8" fill="#FFFFFF" stroke="#E5E5E5" stroke-width="1"/>
  <rect x="780" y="160" width="4" height="90" rx="2" fill="#FF4F1F"/>
  <text x="804" y="190" fill="#FF4F1F" font-family="monospace" font-size="13" font-weight="600">API</text>
  <text x="804" y="212" fill="#111111" font-family="system-ui,sans-serif" font-size="14" font-weight="600">API Integration</text>
  <text x="804" y="232" fill="#6B6B6B" font-family="system-ui,sans-serif" font-size="12">System-to-system data flow</text>
  <!-- Row 2 -->
  <rect x="100" y="270" width="320" height="90" rx="8" fill="#FFFFFF" stroke="#E5E5E5" stroke-width="1"/>
  <rect x="100" y="270" width="4" height="90" rx="2" fill="#FF4F1F"/>
  <text x="124" y="300" fill="#FF4F1F" font-family="monospace" font-size="13" font-weight="600">TAM</text>
  <text x="124" y="322" fill="#111111" font-family="system-ui,sans-serif" font-size="14" font-weight="600">Total Addressable Market</text>
  <text x="124" y="342" fill="#6B6B6B" font-family="system-ui,sans-serif" font-size="12">Revenue ceiling calculation</text>
  <rect x="440" y="270" width="320" height="90" rx="8" fill="#FFFFFF" stroke="#E5E5E5" stroke-width="1"/>
  <rect x="440" y="270" width="4" height="90" rx="2" fill="#FF4F1F"/>
  <text x="464" y="300" fill="#FF4F1F" font-family="monospace" font-size="13" font-weight="600">SDR</text>
  <text x="464" y="322" fill="#111111" font-family="system-ui,sans-serif" font-size="14" font-weight="600">Sales Dev Representative</text>
  <text x="464" y="342" fill="#6B6B6B" font-family="system-ui,sans-serif" font-size="12">Outbound prospecting role</text>
  <rect x="780" y="270" width="320" height="90" rx="8" fill="#FFFFFF" stroke="#E5E5E5" stroke-width="1"/>
  <rect x="780" y="270" width="4" height="90" rx="2" fill="#FF4F1F"/>
  <text x="804" y="300" fill="#FF4F1F" font-family="monospace" font-size="13" font-weight="600">ABM</text>
  <text x="804" y="322" fill="#111111" font-family="system-ui,sans-serif" font-size="14" font-weight="600">Account-Based Marketing</text>
  <text x="804" y="342" fill="#6B6B6B" font-family="system-ui,sans-serif" font-size="12">Targeted account strategy</text>
  <!-- Row 3 -->
  <rect x="100" y="380" width="320" height="90" rx="8" fill="#FFFFFF" stroke="#E5E5E5" stroke-width="1"/>
  <rect x="100" y="380" width="4" height="90" rx="2" fill="#FF4F1F"/>
  <text x="124" y="410" fill="#FF4F1F" font-family="monospace" font-size="13" font-weight="600">PLG</text>
  <text x="124" y="432" fill="#111111" font-family="system-ui,sans-serif" font-size="14" font-weight="600">Product-Led Growth</text>
  <text x="124" y="452" fill="#6B6B6B" font-family="system-ui,sans-serif" font-size="12">Self-serve acquisition model</text>
  <rect x="440" y="380" width="320" height="90" rx="8" fill="#FFFFFF" stroke="#E5E5E5" stroke-width="1"/>
  <rect x="440" y="380" width="4" height="90" rx="2" fill="#FF4F1F"/>
  <text x="464" y="410" fill="#FF4F1F" font-family="monospace" font-size="13" font-weight="600">LLM</text>
  <text x="464" y="432" fill="#111111" font-family="system-ui,sans-serif" font-size="14" font-weight="600">Large Language Model</text>
  <text x="464" y="452" fill="#6B6B6B" font-family="system-ui,sans-serif" font-size="12">AI backbone for automation</text>
  <rect x="780" y="380" width="320" height="90" rx="8" fill="#FFFFFF" stroke="#E5E5E5" stroke-width="1"/>
  <rect x="780" y="380" width="4" height="90" rx="2" fill="#FF4F1F"/>
  <text x="804" y="410" fill="#FF4F1F" font-family="monospace" font-size="13" font-weight="600">CRM</text>
  <text x="804" y="432" fill="#111111" font-family="system-ui,sans-serif" font-size="14" font-weight="600">Customer Relationship Mgmt</text>
  <text x="804" y="452" fill="#6B6B6B" font-family="system-ui,sans-serif" font-size="12">Pipeline and deal tracking</text>
  <!-- Bottom count -->
  <text x="600" y="540" fill="#6B6B6B" font-family="system-ui,sans-serif" font-size="14" text-anchor="middle">50+ terms defined for GTM Engineers</text>
  <rect x="545" y="555" width="110" height="3" rx="1.5" fill="#FF4F1F" opacity="0.4"/>
</svg>