<svg xmlns="http://www.w3.org/2000/svg" viewBox="0 0 1200 630" width="1200" height="630">
<rect width="1200" height="630" fill="#FAFAFA"/>
<rect x="0" y="0" width="1200" height="6" fill="#FF4F1F"/>
<text x="600" y="52" text-anchor="middle" font-family="Sora, sans-serif" font-size="26" font-weight="700" fill="#111111">GTM Engineer vs RevOps Salary Comparison</text>

<circle cx="600" cy="134" r="28" fill="#FF4F1F"/>
<text x="600" y="141" text-anchor="middle" font-family="Sora, sans-serif" font-size="18" font-weight="700" fill="white">VS</text>
<text x="180" y="140" text-anchor="middle" font-family="Sora, sans-serif" font-size="22" font-weight="600" fill="#111111">Engineer</text>
<text x="780" y="140" text-anchor="middle" font-family="Sora, sans-serif" font-size="22" font-weight="600" fill="#111111">Revops</text>
<text x="600" y="196" text-anchor="middle" font-family="Plus Jakarta Sans, sans-serif" font-size="13" font-weight="500" fill="#6B6B6B">GTM Engineer Median</text>
<rect x="0" y="204" width="153.0" height="14" rx="3" fill="#FF4F1F" opacity="0.8"/>
<rect x="780" y="204" width="106.2" height="14" rx="3" fill="#cc3f18" opacity="0.7"/>
<line x1="600" y1="184" x2="600" y2="224" stroke="#E5E5E5" stroke-width="1"/>
<text x="600" y="264" text-anchor="middle" font-family="Plus Jakarta Sans, sans-serif" font-size="13" font-weight="500" fill="#6B6B6B">RevOps Median</text>
<rect x="0" y="272" width="131.4" height="14" rx="3" fill="#FF4F1F" opacity="0.8"/>
<rect x="780" y="272" width="140.4" height="14" rx="3" fill="#cc3f18" opacity="0.7"/>
<line x1="600" y1="252" x2="600" y2="292" stroke="#E5E5E5" stroke-width="1"/>
<text x="600" y="332" text-anchor="middle" font-family="Plus Jakarta Sans, sans-serif" font-size="13" font-weight="500" fill="#6B6B6B">GTM Engineer Range</text>
<rect x="0" y="340" width="126.0" height="14" rx="3" fill="#FF4F1F" opacity="0.8"/>
<rect x="780" y="340" width="158.4" height="14" rx="3" fill="#cc3f18" opacity="0.7"/>
<line x1="600" y1="320" x2="600" y2="360" stroke="#E5E5E5" stroke-width="1"/>
<text x="600" y="400" text-anchor="middle" font-family="Plus Jakarta Sans, sans-serif" font-size="13" font-weight="500" fill="#6B6B6B">Data Quality</text>
<rect x="0" y="408" width="149.4" height="14" rx="3" fill="#FF4F1F" opacity="0.8"/>
<rect x="780" y="408" width="169.2" height="14" rx="3" fill="#cc3f18" opacity="0.7"/>
<line x1="600" y1="388" x2="600" y2="428" stroke="#E5E5E5" stroke-width="1"/>
<text x="600" y="468" text-anchor="middle" font-family="Plus Jakarta Sans, sans-serif" font-size="13" font-weight="500" fill="#6B6B6B">Integration</text>
<rect x="0" y="476" width="124.2" height="14" rx="3" fill="#FF4F1F" opacity="0.8"/>
<rect x="780" y="476" width="99.0" height="14" rx="3" fill="#cc3f18" opacity="0.7"/>
<line x1="600" y1="456" x2="600" y2="496" stroke="#E5E5E5" stroke-width="1"/>

</svg>