<svg xmlns="http://www.w3.org/2000/svg" viewBox="0 0 1200 630" width="1200" height="630">
<rect width="1200" height="630" fill="#FAFAFA"/>
<rect x="0" y="0" width="1200" height="5" fill="#FF4F1F"/>
<rect x="1033" y="24" width="127" height="30" rx="15" fill="#FF4F1F" opacity="0.1"/>
<text x="1096.5" y="44" text-anchor="middle" font-family="Plus Jakarta Sans, sans-serif" font-size="12" font-weight="600" fill="#FF4F1F" letter-spacing="0.5">SALARY DATA</text>
<text x="60" y="100" font-family="Sora, sans-serif" font-size="30" font-weight="700" fill="#111111">GTM Engineer Salary Data Methodology</text>
<text x="60" y="138" font-family="Sora, sans-serif" font-size="30" font-weight="700" fill="#111111">(2026)</text>
<rect x="60" y="184" width="80" height="4" rx="2" fill="#FF4F1F" opacity="0.6"/>
<rect x="60" y="210" width="118.0" height="32" rx="16" fill="#fff0ed" stroke="#FF4F1F" stroke-width="0.5" opacity="0.7"/>
<text x="119.0" y="231" text-anchor="middle" font-family="Plus Jakarta Sans, sans-serif" font-size="12" font-weight="500" fill="#FF4F1F">Data Sources</text>
<rect x="190.0" y="210" width="155.5" height="32" rx="16" fill="#fff0ed" stroke="#FF4F1F" stroke-width="0.5" opacity="0.7"/>
<text x="267.75" y="231" text-anchor="middle" font-family="Plus Jakarta Sans, sans-serif" font-size="12" font-weight="500" fill="#FF4F1F">Collection Method</text>
<rect x="357.5" y="210" width="125.5" height="32" rx="16" fill="#fff0ed" stroke="#FF4F1F" stroke-width="0.5" opacity="0.7"/>
<text x="420.25" y="231" text-anchor="middle" font-family="Plus Jakarta Sans, sans-serif" font-size="12" font-weight="500" fill="#FF4F1F">Normalization</text>
<rect x="495.0" y="210" width="133.0" height="32" rx="16" fill="#fff0ed" stroke="#FF4F1F" stroke-width="0.5" opacity="0.7"/>
<text x="561.5" y="231" text-anchor="middle" font-family="Plus Jakarta Sans, sans-serif" font-size="12" font-weight="500" fill="#FF4F1F">Classification</text>
<rect x="640.0" y="210" width="118.0" height="32" rx="16" fill="#fff0ed" stroke="#FF4F1F" stroke-width="0.5" opacity="0.7"/>
<text x="699.0" y="231" text-anchor="middle" font-family="Plus Jakarta Sans, sans-serif" font-size="12" font-weight="500" fill="#FF4F1F">Sample Sizes</text>
<rect x="770.0" y="210" width="110.5" height="32" rx="16" fill="#fff0ed" stroke="#FF4F1F" stroke-width="0.5" opacity="0.7"/>
<text x="825.25" y="231" text-anchor="middle" font-family="Plus Jakarta Sans, sans-serif" font-size="12" font-weight="500" fill="#FF4F1F">Limitations</text>
<rect x="892.5" y="210" width="178.0" height="32" rx="16" fill="#fff0ed" stroke="#FF4F1F" stroke-width="0.5" opacity="0.7"/>
<text x="981.5" y="231" text-anchor="middle" font-family="Plus Jakarta Sans, sans-serif" font-size="12" font-weight="500" fill="#FF4F1F">How We Use This Data</text>
<rect x="60" y="252" width="170.5" height="32" rx="16" fill="#fff0ed" stroke="#FF4F1F" stroke-width="0.5" opacity="0.7"/>
<text x="145.25" y="273" text-anchor="middle" font-family="Plus Jakarta Sans, sans-serif" font-size="12" font-weight="500" fill="#FF4F1F">Analysis Deep Dives</text>
<text x="1150" y="612" text-anchor="end" font-family="Plus Jakarta Sans, sans-serif" font-size="10" fill="#6B6B6B" opacity="0.35">GTME Pulse</text>
</svg>