<svg xmlns="http://www.w3.org/2000/svg" viewBox="0 0 1200 630" width="1200" height="630">
<rect width="1200" height="630" fill="#FAFAFA"/>
<rect x="0" y="0" width="1200" height="5" fill="#FF4F1F"/>
<rect x="1069" y="24" width="91" height="30" rx="15" fill="#FF4F1F" opacity="0.1"/>
<text x="1114.5" y="44" text-anchor="middle" font-family="Plus Jakarta Sans, sans-serif" font-size="12" font-weight="600" fill="#FF4F1F" letter-spacing="0.5">INSIGHT</text>
<text x="60" y="100" font-family="Sora, sans-serif" font-size="26" font-weight="700" fill="#111111">Data Enrichment Waterfall Architecture and</text>
<text x="60" y="134" font-family="Sora, sans-serif" font-size="26" font-weight="700" fill="#111111">Sequencing</text>
<rect x="60" y="176" width="80" height="4" rx="2" fill="#FF4F1F" opacity="0.6"/>
<rect x="60" y="202" width="178.0" height="32" rx="16" fill="#fff0ed" stroke="#FF4F1F" stroke-width="0.5" opacity="0.7"/>
<text x="149.0" y="223" text-anchor="middle" font-family="Plus Jakarta Sans, sans-serif" font-size="12" font-weight="500" fill="#FF4F1F">Why Waterfalls Exist</text>
<rect x="250.0" y="202" width="118.0" height="32" rx="16" fill="#fff0ed" stroke="#FF4F1F" stroke-width="0.5" opacity="0.7"/>
<text x="309.0" y="223" text-anchor="middle" font-family="Plus Jakarta Sans, sans-serif" font-size="12" font-weight="500" fill="#FF4F1F">Core Pattern</text>
<rect x="380.0" y="202" width="140.5" height="32" rx="16" fill="#fff0ed" stroke="#FF4F1F" stroke-width="0.5" opacity="0.7"/>
<text x="450.25" y="223" text-anchor="middle" font-family="Plus Jakarta Sans, sans-serif" font-size="12" font-weight="500" fill="#FF4F1F">Email Waterfall</text>
<rect x="532.5" y="202" width="140.5" height="32" rx="16" fill="#fff0ed" stroke="#FF4F1F" stroke-width="0.5" opacity="0.7"/>
<text x="602.75" y="223" text-anchor="middle" font-family="Plus Jakarta Sans, sans-serif" font-size="12" font-weight="500" fill="#FF4F1F">Phone Waterfall</text>
<rect x="685.0" y="202" width="155.5" height="32" rx="16" fill="#fff0ed" stroke="#FF4F1F" stroke-width="0.5" opacity="0.7"/>
<text x="762.75" y="223" text-anchor="middle" font-family="Plus Jakarta Sans, sans-serif" font-size="12" font-weight="500" fill="#FF4F1F">Company Waterfall</text>
<rect x="852.5" y="202" width="155.5" height="32" rx="16" fill="#fff0ed" stroke="#FF4F1F" stroke-width="0.5" opacity="0.7"/>
<text x="930.25" y="223" text-anchor="middle" font-family="Plus Jakarta Sans, sans-serif" font-size="12" font-weight="500" fill="#FF4F1F">Cost Optimization</text>
<rect x="60" y="244" width="170.5" height="32" rx="16" fill="#fff0ed" stroke="#FF4F1F" stroke-width="0.5" opacity="0.7"/>
<text x="145.25" y="265" text-anchor="middle" font-family="Plus Jakarta Sans, sans-serif" font-size="12" font-weight="500" fill="#FF4F1F">Clay Implementation</text>
<rect x="242.5" y="244" width="215.5" height="32" rx="16" fill="#fff0ed" stroke="#FF4F1F" stroke-width="0.5" opacity="0.7"/>
<text x="350.25" y="265" text-anchor="middle" font-family="Plus Jakarta Sans, sans-serif" font-size="12" font-weight="500" fill="#FF4F1F">Common Waterfall Mistakes</text>
<text x="1150" y="612" text-anchor="end" font-family="Plus Jakarta Sans, sans-serif" font-size="10" fill="#6B6B6B" opacity="0.35">GTME Pulse</text>
</svg>