<svg xmlns="http://www.w3.org/2000/svg" viewBox="0 0 1200 630" width="1200" height="630">
<rect width="1200" height="630" fill="#FAFAFA"/>
<rect x="0" y="0" width="1200" height="5" fill="#FF4F1F"/>
<rect x="1069" y="24" width="91" height="30" rx="15" fill="#FF4F1F" opacity="0.1"/>
<text x="1114.5" y="44" text-anchor="middle" font-family="Plus Jakarta Sans, sans-serif" font-size="12" font-weight="600" fill="#FF4F1F" letter-spacing="0.5">INSIGHT</text>
<text x="60" y="100" font-family="Sora, sans-serif" font-size="30" font-weight="700" fill="#111111">Email Warm-Up Strategy 2026: Domain</text>
<text x="60" y="138" font-family="Sora, sans-serif" font-size="30" font-weight="700" fill="#111111">Schedules</text>
<rect x="60" y="184" width="80" height="4" rx="2" fill="#FF4F1F" opacity="0.6"/>
<rect x="60" y="210" width="215.5" height="32" rx="16" fill="#fff0ed" stroke="#FF4F1F" stroke-width="0.5" opacity="0.7"/>
<text x="167.75" y="231" text-anchor="middle" font-family="Plus Jakarta Sans, sans-serif" font-size="12" font-weight="500" fill="#FF4F1F">What Changed in 2025-2026</text>
<rect x="287.5" y="210" width="238.0" height="32" rx="16" fill="#fff0ed" stroke="#FF4F1F" stroke-width="0.5" opacity="0.7"/>
<text x="406.5" y="231" text-anchor="middle" font-family="Plus Jakarta Sans, sans-serif" font-size="12" font-weight="500" fill="#FF4F1F">Phase 1: Domain Acquisition </text>
<rect x="537.5" y="210" width="238.0" height="32" rx="16" fill="#fff0ed" stroke="#FF4F1F" stroke-width="0.5" opacity="0.7"/>
<text x="656.5" y="231" text-anchor="middle" font-family="Plus Jakarta Sans, sans-serif" font-size="12" font-weight="500" fill="#FF4F1F">Phase 3: Warm-Up Ramp (Days </text>
<rect x="787.5" y="210" width="140.5" height="32" rx="16" fill="#fff0ed" stroke="#FF4F1F" stroke-width="0.5" opacity="0.7"/>
<text x="857.75" y="231" text-anchor="middle" font-family="Plus Jakarta Sans, sans-serif" font-size="12" font-weight="500" fill="#FF4F1F">Domain Rotation</text>
<rect x="60" y="252" width="215.5" height="32" rx="16" fill="#fff0ed" stroke="#FF4F1F" stroke-width="0.5" opacity="0.7"/>
<text x="167.75" y="273" text-anchor="middle" font-family="Plus Jakarta Sans, sans-serif" font-size="12" font-weight="500" fill="#FF4F1F">Provider-Specific Nuances</text>
<rect x="287.5" y="252" width="238.0" height="32" rx="16" fill="#fff0ed" stroke="#FF4F1F" stroke-width="0.5" opacity="0.7"/>
<text x="406.5" y="273" text-anchor="middle" font-family="Plus Jakarta Sans, sans-serif" font-size="12" font-weight="500" fill="#FF4F1F">Monthly Maintenance Checklis</text>
<text x="1150" y="612" text-anchor="end" font-family="Plus Jakarta Sans, sans-serif" font-size="10" fill="#6B6B6B" opacity="0.35">GTME Pulse</text>
</svg>