<svg xmlns="http://www.w3.org/2000/svg" viewBox="0 0 1200 630" width="1200" height="630">
<defs>
<pattern id="dots" x="0" y="0" width="40" height="40" patternUnits="userSpaceOnUse">
<circle cx="20" cy="20" r="1.2" fill="#FF4F1F" opacity="0.06"/>
</pattern>
</defs>
<rect width="1200" height="630" fill="#FAFAFA"/>
<rect width="1200" height="630" fill="url(#dots)"/>
<rect x="0" y="0" width="1200" height="5" fill="#FF4F1F"/>
<text x="60" y="50" font-family="Sora, sans-serif" font-size="24" font-weight="700" fill="#111111">The $45K Coding Premium for GTM Engineers</text>
<rect x="280.0" y="100" width="200" height="78" rx="10" fill="white" stroke="#E5E5E5" stroke-width="1"/>
<text x="380.0" y="134" text-anchor="middle" font-family="Sora, sans-serif" font-size="22" font-weight="700" fill="#FF4F1F">$90K‑$195K</text>
<text x="380.0" y="154" text-anchor="middle" font-family="Plus Jakarta Sans, sans-serif" font-size="11" fill="#6B6B6B">Salary Range</text>
<rect x="500.0" y="100" width="200" height="78" rx="10" fill="white" stroke="#E5E5E5" stroke-width="1"/>
<text x="600.0" y="134" text-anchor="middle" font-family="Sora, sans-serif" font-size="22" font-weight="700" fill="#FF4F1F">$135K</text>
<text x="600.0" y="154" text-anchor="middle" font-family="Plus Jakarta Sans, sans-serif" font-size="11" fill="#6B6B6B">Median Salary</text>
<rect x="720.0" y="100" width="200" height="78" rx="10" fill="white" stroke="#E5E5E5" stroke-width="1"/>
<text x="820.0" y="134" text-anchor="middle" font-family="Sora, sans-serif" font-size="22" font-weight="700" fill="#FF4F1F">228</text>
<text x="820.0" y="154" text-anchor="middle" font-family="Plus Jakarta Sans, sans-serif" font-size="11" fill="#6B6B6B">Survey Respondents</text>

<line x1="450.0" y1="205" x2="450.0" y2="532" stroke="#E5E5E5" stroke-width="0.5" stroke-dasharray="3,3"/>
<line x1="620.0" y1="205" x2="620.0" y2="532" stroke="#E5E5E5" stroke-width="0.5" stroke-dasharray="3,3"/>
<line x1="790.0" y1="205" x2="790.0" y2="532" stroke="#E5E5E5" stroke-width="0.5" stroke-dasharray="3,3"/>

<text x="268" y="230" text-anchor="end" font-family="Plus Jakarta Sans, sans-serif" font-size="13" font-weight="500" fill="#111111">The Coding Premium Explained</text>
<rect x="280" y="214" width="618.8" height="24" rx="4" fill="#FF4F1F" opacity="0.9"/>
<text x="908.8" y="232" font-family="Sora, sans-serif" font-size="12" font-weight="600" fill="#6B6B6B"></text>
<text x="268" y="276" text-anchor="end" font-family="Plus Jakarta Sans, sans-serif" font-size="13" font-weight="500" fill="#111111">The Bimodal Skill Distribution</text>
<rect x="280" y="260" width="550.8" height="24" rx="4" fill="#FF4F1F" opacity="0.8400000000000001"/>
<text x="840.8" y="278" font-family="Sora, sans-serif" font-size="12" font-weight="600" fill="#6B6B6B"></text>
<text x="268" y="322" text-anchor="end" font-family="Plus Jakarta Sans, sans-serif" font-size="13" font-weight="500" fill="#111111">Which Technical Skills Pay Mos</text>
<rect x="280" y="306" width="503.2" height="24" rx="4" fill="#FF4F1F" opacity="0.78"/>
<text x="793.2" y="324" font-family="Sora, sans-serif" font-size="12" font-weight="600" fill="#6B6B6B"></text>
<text x="268" y="368" text-anchor="end" font-family="Plus Jakarta Sans, sans-serif" font-size="13" font-weight="500" fill="#111111">Should You Learn to Code?</text>
<rect x="280" y="352" width="557.6" height="24" rx="4" fill="#FF4F1F" opacity="0.72"/>
<text x="847.6" y="370" font-family="Sora, sans-serif" font-size="12" font-weight="600" fill="#6B6B6B"></text>
<text x="268" y="414" text-anchor="end" font-family="Plus Jakarta Sans, sans-serif" font-size="13" font-weight="500" fill="#111111">The Hiring Signal</text>
<rect x="280" y="398" width="523.6" height="24" rx="4" fill="#FF4F1F" opacity="0.66"/>
<text x="813.6" y="416" font-family="Sora, sans-serif" font-size="12" font-weight="600" fill="#6B6B6B"></text>
<text x="268" y="460" text-anchor="end" font-family="Plus Jakarta Sans, sans-serif" font-size="13" font-weight="500" fill="#111111">The Path from Operator to Engi</text>
<rect x="280" y="444" width="482.8" height="24" rx="4" fill="#FF4F1F" opacity="0.6000000000000001"/>
<text x="772.8" y="462" font-family="Sora, sans-serif" font-size="12" font-weight="600" fill="#6B6B6B"></text>
<text x="268" y="506" text-anchor="end" font-family="Plus Jakarta Sans, sans-serif" font-size="13" font-weight="500" fill="#111111">Frequently Asked Questions</text>
<rect x="280" y="490" width="455.6" height="24" rx="4" fill="#FF4F1F" opacity="0.54"/>
<text x="745.6" y="508" font-family="Sora, sans-serif" font-size="12" font-weight="600" fill="#6B6B6B"></text>

<text x="1150" y="612" text-anchor="end" font-family="Plus Jakarta Sans, sans-serif" font-size="10" fill="#6B6B6B" opacity="0.4">Source: State of GTME Report 2026 (n=228)</text>
</svg>