<svg xmlns="http://www.w3.org/2000/svg" viewBox="0 0 1200 630" width="1200" height="630">
<defs>
<pattern id="dots" x="0" y="0" width="40" height="40" patternUnits="userSpaceOnUse">
<circle cx="20" cy="20" r="1.2" fill="#FF4F1F" opacity="0.06"/>
</pattern>
</defs>
<rect width="1200" height="630" fill="#FAFAFA"/>
<rect width="1200" height="630" fill="url(#dots)"/>
<rect x="0" y="0" width="1200" height="5" fill="#FF4F1F"/>
<text x="60" y="50" font-family="Sora, sans-serif" font-size="24" font-weight="700" fill="#111111">Operator vs Engineer: The GTM Divide</text>
<rect x="170.0" y="100" width="200" height="78" rx="10" fill="white" stroke="#E5E5E5" stroke-width="1"/>
<text x="270.0" y="134" text-anchor="middle" font-family="Sora, sans-serif" font-size="22" font-weight="700" fill="#FF4F1F">$45K</text>
<text x="270.0" y="154" text-anchor="middle" font-family="Plus Jakarta Sans, sans-serif" font-size="11" fill="#6B6B6B">Salary Gap</text>
<rect x="390.0" y="100" width="200" height="78" rx="10" fill="white" stroke="#E5E5E5" stroke-width="1"/>
<text x="490.0" y="134" text-anchor="middle" font-family="Sora, sans-serif" font-size="22" font-weight="700" fill="#FF4F1F">~40%</text>
<text x="490.0" y="154" text-anchor="middle" font-family="Plus Jakarta Sans, sans-serif" font-size="11" fill="#6B6B6B">Code Daily</text>
<rect x="610.0" y="100" width="200" height="78" rx="10" fill="white" stroke="#E5E5E5" stroke-width="1"/>
<text x="710.0" y="134" text-anchor="middle" font-family="Sora, sans-serif" font-size="22" font-weight="700" fill="#FF4F1F">~45%</text>
<text x="710.0" y="154" text-anchor="middle" font-family="Plus Jakarta Sans, sans-serif" font-size="11" fill="#6B6B6B">Never Code</text>
<rect x="830.0" y="100" width="200" height="78" rx="10" fill="white" stroke="#E5E5E5" stroke-width="1"/>
<text x="930.0" y="134" text-anchor="middle" font-family="Sora, sans-serif" font-size="22" font-weight="700" fill="#FF4F1F">~15%</text>
<text x="930.0" y="154" text-anchor="middle" font-family="Plus Jakarta Sans, sans-serif" font-size="11" fill="#6B6B6B">Sometimes Code</text>

<line x1="450.0" y1="205" x2="450.0" y2="532" stroke="#E5E5E5" stroke-width="0.5" stroke-dasharray="3,3"/>
<line x1="620.0" y1="205" x2="620.0" y2="532" stroke="#E5E5E5" stroke-width="0.5" stroke-dasharray="3,3"/>
<line x1="790.0" y1="205" x2="790.0" y2="532" stroke="#E5E5E5" stroke-width="0.5" stroke-dasharray="3,3"/>

<text x="268" y="230" text-anchor="end" font-family="Plus Jakarta Sans, sans-serif" font-size="13" font-weight="500" fill="#111111">The Bimodal Reality</text>
<rect x="280" y="214" width="306.0" height="24" rx="4" fill="#FF4F1F" opacity="0.9"/>
<text x="596.0" y="232" font-family="Sora, sans-serif" font-size="12" font-weight="600" fill="#6B6B6B"></text>
<text x="268" y="276" text-anchor="end" font-family="Plus Jakarta Sans, sans-serif" font-size="13" font-weight="500" fill="#111111">The $45K Salary Gap</text>
<rect x="280" y="260" width="387.6" height="24" rx="4" fill="#FF4F1F" opacity="0.8400000000000001"/>
<text x="677.6" y="278" font-family="Sora, sans-serif" font-size="12" font-weight="600" fill="#6B6B6B"></text>
<text x="268" y="322" text-anchor="end" font-family="Plus Jakarta Sans, sans-serif" font-size="13" font-weight="500" fill="#111111">What Operators Do</text>
<rect x="280" y="306" width="482.8" height="24" rx="4" fill="#FF4F1F" opacity="0.78"/>
<text x="772.8" y="324" font-family="Sora, sans-serif" font-size="12" font-weight="600" fill="#6B6B6B"></text>
<text x="268" y="368" text-anchor="end" font-family="Plus Jakarta Sans, sans-serif" font-size="13" font-weight="500" fill="#111111">What Engineers Do</text>
<rect x="280" y="352" width="299.2" height="24" rx="4" fill="#FF4F1F" opacity="0.72"/>
<text x="589.2" y="370" font-family="Sora, sans-serif" font-size="12" font-weight="600" fill="#6B6B6B"></text>
<text x="268" y="414" text-anchor="end" font-family="Plus Jakarta Sans, sans-serif" font-size="13" font-weight="500" fill="#111111">Companies Hire Both Types</text>
<rect x="280" y="398" width="346.8" height="24" rx="4" fill="#FF4F1F" opacity="0.66"/>
<text x="636.8" y="416" font-family="Sora, sans-serif" font-size="12" font-weight="600" fill="#6B6B6B"></text>
<text x="268" y="460" text-anchor="end" font-family="Plus Jakarta Sans, sans-serif" font-size="13" font-weight="500" fill="#111111">The AI Wildcard</text>
<rect x="280" y="444" width="360.4" height="24" rx="4" fill="#FF4F1F" opacity="0.6000000000000001"/>
<text x="650.4" y="462" font-family="Sora, sans-serif" font-size="12" font-weight="600" fill="#6B6B6B"></text>
<text x="268" y="506" text-anchor="end" font-family="Plus Jakarta Sans, sans-serif" font-size="13" font-weight="500" fill="#111111">Choosing Your Track</text>
<rect x="280" y="490" width="312.8" height="24" rx="4" fill="#FF4F1F" opacity="0.54"/>
<text x="602.8" y="508" font-family="Sora, sans-serif" font-size="12" font-weight="600" fill="#6B6B6B"></text>

<text x="1150" y="612" text-anchor="end" font-family="Plus Jakarta Sans, sans-serif" font-size="10" fill="#6B6B6B" opacity="0.4">Source: State of GTME Report 2026 (n=228)</text>
</svg>