<svg xmlns="http://www.w3.org/2000/svg" viewBox="0 0 1200 630" width="1200" height="630">
<rect width="1200" height="630" fill="#FAFAFA"/>
<rect x="0" y="0" width="1200" height="6" fill="#FF4F1F"/>
<text x="60" y="52" font-family="Sora, sans-serif" font-size="26" font-weight="700" fill="#111111">GTM Engineer Demographics: Survey Results</text>

<rect x="155.0" y="104" width="200" height="90" rx="12" fill="white" stroke="#E5E5E5" stroke-width="1"/>
<text x="255.0" y="142" text-anchor="middle" font-family="Sora, sans-serif" font-size="24" font-weight="700" fill="#FF4F1F">228</text>
<text x="255.0" y="166" text-anchor="middle" font-family="Plus Jakarta Sans, sans-serif" font-size="13" fill="#6B6B6B">Respondents</text>
<rect x="385.0" y="104" width="200" height="90" rx="12" fill="white" stroke="#E5E5E5" stroke-width="1"/>
<text x="485.0" y="142" text-anchor="middle" font-family="Sora, sans-serif" font-size="24" font-weight="700" fill="#FF4F1F">32</text>
<text x="485.0" y="166" text-anchor="middle" font-family="Plus Jakarta Sans, sans-serif" font-size="13" fill="#6B6B6B">Countries</text>
<rect x="615.0" y="104" width="200" height="90" rx="12" fill="white" stroke="#E5E5E5" stroke-width="1"/>
<text x="715.0" y="142" text-anchor="middle" font-family="Sora, sans-serif" font-size="24" font-weight="700" fill="#FF4F1F">25</text>
<text x="715.0" y="166" text-anchor="middle" font-family="Plus Jakarta Sans, sans-serif" font-size="13" fill="#6B6B6B">Median Age</text>
<rect x="845.0" y="104" width="200" height="90" rx="12" fill="white" stroke="#E5E5E5" stroke-width="1"/>
<text x="945.0" y="142" text-anchor="middle" font-family="Sora, sans-serif" font-size="24" font-weight="700" fill="#FF4F1F">53%</text>
<text x="945.0" y="166" text-anchor="middle" font-family="Plus Jakarta Sans, sans-serif" font-size="13" fill="#6B6B6B">Self-Taught</text>

<line x1="425.0" y1="214" x2="425.0" y2="432" stroke="#E5E5E5" stroke-width="0.5" stroke-dasharray="4,4"/>
<line x1="650.0" y1="214" x2="650.0" y2="432" stroke="#E5E5E5" stroke-width="0.5" stroke-dasharray="4,4"/>
<line x1="875.0" y1="214" x2="875.0" y2="432" stroke="#E5E5E5" stroke-width="0.5" stroke-dasharray="4,4"/>
<line x1="1100.0" y1="214" x2="1100.0" y2="432" stroke="#E5E5E5" stroke-width="0.5" stroke-dasharray="4,4"/>

<text x="60" y="240" font-family="Plus Jakarta Sans, sans-serif" font-size="14" fill="#6B6B6B">Median Age</text>
<rect x="200" y="224" width="765.0" height="28" rx="4" fill="#FF4F1F" opacity="0.85"/>
<text x="977.0" y="243" font-family="Sora, sans-serif" font-size="14" font-weight="600" fill="#111111">25</text>
<text x="60" y="292" font-family="Plus Jakarta Sans, sans-serif" font-size="14" fill="#6B6B6B">Respondents</text>
<rect x="200" y="276" width="738.0" height="28" rx="4" fill="#e5471b" opacity="0.85"/>
<text x="950.0" y="295" font-family="Sora, sans-serif" font-size="14" font-weight="600" fill="#111111">228</text>
<text x="60" y="344" font-family="Plus Jakarta Sans, sans-serif" font-size="14" fill="#6B6B6B">Countries</text>
<rect x="200" y="328" width="513.0" height="28" rx="4" fill="#FF4F1F" opacity="0.85"/>
<text x="725.0" y="347" font-family="Sora, sans-serif" font-size="14" font-weight="600" fill="#111111">32</text>
<text x="60" y="396" font-family="Plus Jakarta Sans, sans-serif" font-size="14" fill="#6B6B6B">Self-Taught</text>
<rect x="200" y="380" width="459.0" height="28" rx="4" fill="#e5471b" opacity="0.85"/>
<text x="671.0" y="399" font-family="Sora, sans-serif" font-size="14" font-weight="600" fill="#111111">53%</text>

<text x="1140" y="610" text-anchor="end" font-family="Plus Jakarta Sans, sans-serif" font-size="11" fill="#6B6B6B" opacity="0.5">Source: State of GTME Report 2026 (n=228)</text>
</svg>