<svg xmlns="http://www.w3.org/2000/svg" viewBox="0 0 1200 630" width="1200" height="630">
<defs>
<pattern id="dots" x="0" y="0" width="40" height="40" patternUnits="userSpaceOnUse">
<circle cx="20" cy="20" r="1.2" fill="#FF4F1F" opacity="0.06"/>
</pattern>
</defs>
<rect width="1200" height="630" fill="#FAFAFA"/>
<rect width="1200" height="630" fill="url(#dots)"/>
<rect x="0" y="0" width="1200" height="5" fill="#FF4F1F"/>
<text x="600" y="48" text-anchor="middle" font-family="Sora, sans-serif" font-size="22" font-weight="700" fill="#111111">Automate LinkedIn Outreach Safely</text>


<rect x="-324.0" y="348" width="160" height="32" rx="16" fill="#ffe9e4" stroke="#FF4F1F" stroke-width="0.5" opacity="0.6"/>
<text x="-244.0" y="369" text-anchor="middle" font-family="Plus Jakarta Sans, sans-serif" font-size="11" font-weight="500" fill="#FF4F1F">The Risk Spectrum</text>
<rect x="-148.0" y="348" width="360" height="32" rx="16" fill="#ffe9e4" stroke="#FF4F1F" stroke-width="0.5" opacity="0.6"/>
<text x="32.0" y="369" text-anchor="middle" font-family="Plus Jakarta Sans, sans-serif" font-size="11" font-weight="500" fill="#FF4F1F">Step 1: Choose the Rig</text>
<rect x="228.0" y="348" width="320" height="32" rx="16" fill="#ffe9e4" stroke="#FF4F1F" stroke-width="0.5" opacity="0.6"/>
<text x="388.0" y="369" text-anchor="middle" font-family="Plus Jakarta Sans, sans-serif" font-size="11" font-weight="500" fill="#FF4F1F">Step 2: Set Conservati</text>
<rect x="564.0" y="348" width="280" height="32" rx="16" fill="#ffe9e4" stroke="#FF4F1F" stroke-width="0.5" opacity="0.6"/>
<text x="704.0" y="369" text-anchor="middle" font-family="Plus Jakarta Sans, sans-serif" font-size="11" font-weight="500" fill="#FF4F1F">Step 3: Build Your Pro</text>
<rect x="860.0" y="348" width="328" height="32" rx="16" fill="#ffe9e4" stroke="#FF4F1F" stroke-width="0.5" opacity="0.6"/>
<text x="1024.0" y="369" text-anchor="middle" font-family="Plus Jakarta Sans, sans-serif" font-size="11" font-weight="500" fill="#FF4F1F">Step 4: Write Connecti</text>
<rect x="1204.0" y="348" width="320" height="32" rx="16" fill="#ffe9e4" stroke="#FF4F1F" stroke-width="0.5" opacity="0.6"/>
<text x="1364.0" y="369" text-anchor="middle" font-family="Plus Jakarta Sans, sans-serif" font-size="11" font-weight="500" fill="#FF4F1F">Step 5: Design the Fol</text>

<text x="1150" y="612" text-anchor="end" font-family="Plus Jakarta Sans, sans-serif" font-size="10" fill="#6B6B6B" opacity="0.4">Source: State of GTME Report 2026 (n=228)</text>
</svg>