<svg xmlns="http://www.w3.org/2000/svg" viewBox="0 0 1200 630" width="1200" height="630">
<defs>
<pattern id="dots" x="0" y="0" width="40" height="40" patternUnits="userSpaceOnUse">
<circle cx="20" cy="20" r="1.2" fill="#FF4F1F" opacity="0.06"/>
</pattern>
</defs>
<rect width="1200" height="630" fill="#FAFAFA"/>
<rect width="1200" height="630" fill="url(#dots)"/>
<rect x="0" y="0" width="1200" height="5" fill="#FF4F1F"/>
<text x="60" y="48" font-family="Sora, sans-serif" font-size="22" font-weight="700" fill="#111111">GTM Tool Frustrations: What Engineers Hate</text>
<rect x="68.0" y="92" width="520" height="100" rx="8" fill="white" stroke="#E5E5E5" stroke-width="1"/>
<rect x="68.0" y="92" width="4" height="100" rx="2" fill="#FF4F1F" opacity="0.7"/>
<text x="92.0" y="144.0" font-size="20" fill="#FF4F1F" opacity="0.6">◈</text>
<text x="120.0" y="130" font-family="Sora, sans-serif" font-size="16" font-weight="600" fill="#111111">#1</text>
<text x="120.0" y="152" font-family="Plus Jakarta Sans, sans-serif" font-size="12" fill="#6B6B6B">Integration Issues</text>
<rect x="612.0" y="92" width="520" height="100" rx="8" fill="white" stroke="#E5E5E5" stroke-width="1"/>
<rect x="612.0" y="92" width="4" height="100" rx="2" fill="#FF4F1F" opacity="0.7"/>
<text x="636.0" y="144.0" font-size="20" fill="#FF4F1F" opacity="0.6">◇</text>
<text x="664.0" y="130" font-family="Sora, sans-serif" font-size="16" font-weight="600" fill="#111111">#2</text>
<text x="664.0" y="152" font-family="Plus Jakarta Sans, sans-serif" font-size="12" fill="#6B6B6B">UX Problems</text>
<rect x="68.0" y="208" width="520" height="100" rx="8" fill="white" stroke="#E5E5E5" stroke-width="1"/>
<rect x="68.0" y="208" width="4" height="100" rx="2" fill="#FF4F1F" opacity="0.7"/>
<text x="92.0" y="260.0" font-size="20" fill="#FF4F1F" opacity="0.6">△</text>
<text x="120.0" y="246" font-family="Sora, sans-serif" font-size="16" font-weight="600" fill="#111111">#3</text>
<text x="120.0" y="268" font-family="Plus Jakarta Sans, sans-serif" font-size="12" fill="#6B6B6B">Documentation Gaps</text>
<rect x="612.0" y="208" width="520" height="100" rx="8" fill="white" stroke="#E5E5E5" stroke-width="1"/>
<rect x="612.0" y="208" width="4" height="100" rx="2" fill="#FF4F1F" opacity="0.7"/>
<text x="636.0" y="260.0" font-size="20" fill="#FF4F1F" opacity="0.6">□</text>
<text x="664.0" y="246" font-family="Sora, sans-serif" font-size="16" font-weight="600" fill="#111111">#4</text>
<text x="664.0" y="268" font-family="Plus Jakarta Sans, sans-serif" font-size="12" fill="#6B6B6B">Pricing Complaints</text>
<rect x="68.0" y="324" width="520" height="100" rx="8" fill="white" stroke="#E5E5E5" stroke-width="1"/>
<rect x="68.0" y="324" width="4" height="100" rx="2" fill="#FF4F1F" opacity="0.7"/>
<text x="92.0" y="376.0" font-size="20" fill="#FF4F1F" opacity="0.6">○</text>
<text x="120.0" y="379.0" font-family="Sora, sans-serif" font-size="15" font-weight="500" fill="#111111">The Tools You Depend On Are the Tools You Hate</text>
<rect x="612.0" y="324" width="520" height="100" rx="8" fill="white" stroke="#E5E5E5" stroke-width="1"/>
<rect x="612.0" y="324" width="4" height="100" rx="2" fill="#FF4F1F" opacity="0.7"/>
<text x="636.0" y="376.0" font-size="20" fill="#FF4F1F" opacity="0.6">☆</text>
<text x="664.0" y="379.0" font-family="Sora, sans-serif" font-size="15" font-weight="500" fill="#111111">Integration Issues: The #1 Frustration</text>

<text x="1150" y="612" text-anchor="end" font-family="Plus Jakarta Sans, sans-serif" font-size="10" fill="#6B6B6B" opacity="0.4">Source: State of GTME Report 2026 (n=228)</text>
</svg>