<svg xmlns="http://www.w3.org/2000/svg" viewBox="0 0 1200 630" width="1200" height="630">
<defs>
<pattern id="dots" x="0" y="0" width="40" height="40" patternUnits="userSpaceOnUse">
<circle cx="20" cy="20" r="1.2" fill="#FF4F1F" opacity="0.06"/>
</pattern>
</defs>
<rect width="1200" height="630" fill="#FAFAFA"/>
<rect width="1200" height="630" fill="url(#dots)"/>
<rect x="0" y="0" width="1200" height="5" fill="#FF4F1F"/>
<text x="600" y="48" text-anchor="middle" font-family="Sora, sans-serif" font-size="22" font-weight="700" fill="#111111">GTM Agency Client Count Analysis</text>
<rect x="140.0" y="126" width="280" height="120" rx="12" fill="white" stroke="#E5E5E5" stroke-width="1"/>
<circle cx="168.0" cy="125" r="18" fill="#FF4F1F" opacity="0.9299999999999999"/>
<text x="168.0" y="132" text-anchor="middle" font-family="Sora, sans-serif" font-size="14" font-weight="700" fill="white">1</text>
<text x="160.0" y="174" font-family="Sora, sans-serif" font-size="16" font-weight="600" fill="#111111">47%</text>
<text x="160.0" y="198" font-family="Plus Jakarta Sans, sans-serif" font-size="12" fill="#6B6B6B">Have &lt;5 Clients</text>
<line x1="425.0" y1="186" x2="455.0" y2="186" stroke="#FF4F1F" stroke-width="2" opacity="0.3"/>
<polygon points="455.0,181 463.0,186 455.0,191" fill="#FF4F1F" opacity="0.3"/>
<rect x="460.0" y="126" width="280" height="120" rx="12" fill="white" stroke="#E5E5E5" stroke-width="1"/>
<circle cx="488.0" cy="125" r="18" fill="#FF4F1F" opacity="0.86"/>
<text x="488.0" y="132" text-anchor="middle" font-family="Sora, sans-serif" font-size="14" font-weight="700" fill="white">2</text>
<text x="480.0" y="174" font-family="Sora, sans-serif" font-size="16" font-weight="600" fill="#111111">33%</text>
<text x="480.0" y="198" font-family="Plus Jakarta Sans, sans-serif" font-size="12" fill="#6B6B6B">Have 5‑10 Clients</text>
<line x1="745.0" y1="186" x2="775.0" y2="186" stroke="#FF4F1F" stroke-width="2" opacity="0.3"/>
<polygon points="775.0,181 783.0,186 775.0,191" fill="#FF4F1F" opacity="0.3"/>
<rect x="780.0" y="126" width="280" height="120" rx="12" fill="white" stroke="#E5E5E5" stroke-width="1"/>
<circle cx="808.0" cy="125" r="18" fill="#FF4F1F" opacity="0.79"/>
<text x="808.0" y="132" text-anchor="middle" font-family="Sora, sans-serif" font-size="14" font-weight="700" fill="white">3</text>
<text x="800.0" y="174" font-family="Sora, sans-serif" font-size="16" font-weight="600" fill="#111111">20%</text>
<text x="800.0" y="198" font-family="Plus Jakarta Sans, sans-serif" font-size="12" fill="#6B6B6B">Have 10+ Clients</text>
<line x1="600" y1="246" x2="600" y2="286" stroke="#FF4F1F" stroke-width="2" opacity="0.3"/>
<polygon points="595,284 600,292 605,284" fill="#FF4F1F" opacity="0.3"/>
<rect x="140.0" y="306" width="280" height="120" rx="12" fill="white" stroke="#E5E5E5" stroke-width="1"/>
<circle cx="168.0" cy="305" r="18" fill="#FF4F1F" opacity="0.72"/>
<text x="168.0" y="312" text-anchor="middle" font-family="Sora, sans-serif" font-size="14" font-weight="700" fill="white">4</text>
<text x="160.0" y="354" font-family="Sora, sans-serif" font-size="14" font-weight="500" fill="#111111">The Distribution</text>
<line x1="425.0" y1="366" x2="455.0" y2="366" stroke="#FF4F1F" stroke-width="2" opacity="0.3"/>
<polygon points="455.0,361 463.0,366 455.0,371" fill="#FF4F1F" opacity="0.3"/>
<rect x="460.0" y="306" width="280" height="120" rx="12" fill="white" stroke="#E5E5E5" stroke-width="1"/>
<circle cx="488.0" cy="305" r="18" fill="#FF4F1F" opacity="0.6499999999999999"/>
<text x="488.0" y="312" text-anchor="middle" font-family="Sora, sans-serif" font-size="14" font-weight="700" fill="white">5</text>
<text x="480.0" y="354" font-family="Sora, sans-serif" font-size="14" font-weight="500" fill="#111111">Capacity Per Operator</text>
<line x1="745.0" y1="366" x2="775.0" y2="366" stroke="#FF4F1F" stroke-width="2" opacity="0.3"/>
<polygon points="775.0,361 783.0,366 775.0,371" fill="#FF4F1F" opacity="0.3"/>
<rect x="780.0" y="306" width="280" height="120" rx="12" fill="white" stroke="#E5E5E5" stroke-width="1"/>
<circle cx="808.0" cy="305" r="18" fill="#FF4F1F" opacity="0.6"/>
<text x="808.0" y="312" text-anchor="middle" font-family="Sora, sans-serif" font-size="14" font-weight="700" fill="white">6</text>
<text x="800.0" y="354" font-family="Sora, sans-serif" font-size="14" font-weight="500" fill="#111111">The Revenue Math</text>

<text x="1150" y="612" text-anchor="end" font-family="Plus Jakarta Sans, sans-serif" font-size="10" fill="#6B6B6B" opacity="0.4">Source: State of GTME Report 2026 (n=228)</text>
</svg>