<svg xmlns="http://www.w3.org/2000/svg" viewBox="0 0 1200 630" width="1200" height="630">
<rect width="1200" height="630" fill="#FAFAFA"/>
<rect x="0" y="0" width="1200" height="6" fill="#FF4F1F"/>
<text x="600" y="52" text-anchor="middle" font-family="Sora, sans-serif" font-size="26" font-weight="700" fill="#111111">GTM Engineer vs Solutions Engineer Salary</text>
<text x="600" y="84" text-anchor="middle" font-family="Sora, sans-serif" font-size="26" font-weight="700" fill="#111111">Comparison</text>

<circle cx="600" cy="166" r="28" fill="#FF4F1F"/>
<text x="600" y="173" text-anchor="middle" font-family="Sora, sans-serif" font-size="18" font-weight="700" fill="white">VS</text>
<text x="180" y="172" text-anchor="middle" font-family="Sora, sans-serif" font-size="22" font-weight="600" fill="#111111">Engineer</text>
<text x="780" y="172" text-anchor="middle" font-family="Sora, sans-serif" font-size="22" font-weight="600" fill="#111111">Solutions</text>
<text x="600" y="228" text-anchor="middle" font-family="Plus Jakarta Sans, sans-serif" font-size="13" font-weight="500" fill="#6B6B6B">GTM Engineer Median</text>
<rect x="0" y="236" width="163.8" height="14" rx="3" fill="#FF4F1F" opacity="0.8"/>
<rect x="780" y="236" width="151.2" height="14" rx="3" fill="#cc3f18" opacity="0.7"/>
<line x1="600" y1="216" x2="600" y2="256" stroke="#E5E5E5" stroke-width="1"/>
<text x="600" y="296" text-anchor="middle" font-family="Plus Jakarta Sans, sans-serif" font-size="13" font-weight="500" fill="#6B6B6B">Solutions Engineer Median</text>
<rect x="0" y="304" width="163.8" height="14" rx="3" fill="#FF4F1F" opacity="0.8"/>
<rect x="780" y="304" width="156.6" height="14" rx="3" fill="#cc3f18" opacity="0.7"/>
<line x1="600" y1="284" x2="600" y2="324" stroke="#E5E5E5" stroke-width="1"/>
<text x="600" y="364" text-anchor="middle" font-family="Plus Jakarta Sans, sans-serif" font-size="13" font-weight="500" fill="#6B6B6B">GTM Engineer Range</text>
<rect x="0" y="372" width="131.4" height="14" rx="3" fill="#FF4F1F" opacity="0.8"/>
<rect x="780" y="372" width="163.8" height="14" rx="3" fill="#cc3f18" opacity="0.7"/>
<line x1="600" y1="352" x2="600" y2="392" stroke="#E5E5E5" stroke-width="1"/>
<text x="600" y="432" text-anchor="middle" font-family="Plus Jakarta Sans, sans-serif" font-size="13" font-weight="500" fill="#6B6B6B">Data Quality</text>
<rect x="0" y="440" width="149.4" height="14" rx="3" fill="#FF4F1F" opacity="0.8"/>
<rect x="780" y="440" width="145.8" height="14" rx="3" fill="#cc3f18" opacity="0.7"/>
<line x1="600" y1="420" x2="600" y2="460" stroke="#E5E5E5" stroke-width="1"/>
<text x="600" y="500" text-anchor="middle" font-family="Plus Jakarta Sans, sans-serif" font-size="13" font-weight="500" fill="#6B6B6B">Integration</text>
<rect x="0" y="508" width="144.0" height="14" rx="3" fill="#FF4F1F" opacity="0.8"/>
<rect x="780" y="508" width="109.8" height="14" rx="3" fill="#cc3f18" opacity="0.7"/>
<line x1="600" y1="488" x2="600" y2="528" stroke="#E5E5E5" stroke-width="1"/>

</svg>