<svg xmlns="http://www.w3.org/2000/svg" viewBox="0 0 1200 630" width="1200" height="630">
<rect width="1200" height="630" fill="#FAFAFA"/>
<rect x="0" y="0" width="1200" height="5" fill="#FF4F1F"/>
<rect x="1042" y="24" width="118" height="30" rx="15" fill="#FF4F1F" opacity="0.1"/>
<text x="1101.0" y="44" text-anchor="middle" font-family="Plus Jakarta Sans, sans-serif" font-size="12" font-weight="600" fill="#FF4F1F" letter-spacing="0.5">COMPARISON</text>
<text x="60" y="100" font-family="Sora, sans-serif" font-size="36" font-weight="700" fill="#111111">6sense vs Bombora</text>
<rect x="60" y="152" width="80" height="4" rx="2" fill="#FF4F1F" opacity="0.6"/>
<rect x="60" y="178" width="163.0" height="32" rx="16" fill="#fff0ed" stroke="#FF4F1F" stroke-width="0.5" opacity="0.7"/>
<text x="141.5" y="199" text-anchor="middle" font-family="Plus Jakarta Sans, sans-serif" font-size="12" font-weight="500" fill="#FF4F1F">Feature Comparison</text>
<rect x="235.0" y="178" width="155.5" height="32" rx="16" fill="#fff0ed" stroke="#FF4F1F" stroke-width="0.5" opacity="0.7"/>
<text x="312.75" y="199" text-anchor="middle" font-family="Plus Jakarta Sans, sans-serif" font-size="12" font-weight="500" fill="#FF4F1F">Where 6sense Wins</text>
<rect x="402.5" y="178" width="163.0" height="32" rx="16" fill="#fff0ed" stroke="#FF4F1F" stroke-width="0.5" opacity="0.7"/>
<text x="484.0" y="199" text-anchor="middle" font-family="Plus Jakarta Sans, sans-serif" font-size="12" font-weight="500" fill="#FF4F1F">Where Bombora Wins</text>
<rect x="577.5" y="178" width="155.5" height="32" rx="16" fill="#fff0ed" stroke="#FF4F1F" stroke-width="0.5" opacity="0.7"/>
<text x="655.25" y="199" text-anchor="middle" font-family="Plus Jakarta Sans, sans-serif" font-size="12" font-weight="500" fill="#FF4F1F">Pricing Breakdown</text>
<rect x="745.0" y="178" width="110.5" height="32" rx="16" fill="#fff0ed" stroke="#FF4F1F" stroke-width="0.5" opacity="0.7"/>
<text x="800.25" y="199" text-anchor="middle" font-family="Plus Jakarta Sans, sans-serif" font-size="12" font-weight="500" fill="#FF4F1F">The Verdict</text>
<rect x="867.5" y="178" width="223.0" height="32" rx="16" fill="#fff0ed" stroke="#FF4F1F" stroke-width="0.5" opacity="0.7"/>
<text x="979.0" y="199" text-anchor="middle" font-family="Plus Jakarta Sans, sans-serif" font-size="12" font-weight="500" fill="#FF4F1F">Frequently Asked Questions</text>
<rect x="60" y="220" width="238.0" height="32" rx="16" fill="#fff0ed" stroke="#FF4F1F" stroke-width="0.5" opacity="0.7"/>
<text x="179.0" y="241" text-anchor="middle" font-family="Plus Jakarta Sans, sans-serif" font-size="12" font-weight="500" fill="#FF4F1F">Related Comparisons &amp; Review</text>
<rect x="310.0" y="220" width="178.0" height="32" rx="16" fill="#fff0ed" stroke="#FF4F1F" stroke-width="0.5" opacity="0.7"/>
<text x="399.0" y="241" text-anchor="middle" font-family="Plus Jakarta Sans, sans-serif" font-size="12" font-weight="500" fill="#FF4F1F">Get the Weekly Pulse</text>
<text x="1150" y="612" text-anchor="end" font-family="Plus Jakarta Sans, sans-serif" font-size="10" fill="#6B6B6B" opacity="0.35">GTME Pulse</text>
</svg>