<svg xmlns="http://www.w3.org/2000/svg" viewBox="0 0 1200 630" width="1200" height="630">
<defs>
<pattern id="dots" x="0" y="0" width="40" height="40" patternUnits="userSpaceOnUse">
<circle cx="20" cy="20" r="1.2" fill="#FF4F1F" opacity="0.06"/>
</pattern>
</defs>
<rect width="1200" height="630" fill="#FAFAFA"/>
<rect width="1200" height="630" fill="url(#dots)"/>
<rect x="0" y="0" width="1200" height="5" fill="#FF4F1F"/>
<text x="600" y="48" text-anchor="middle" font-family="Sora, sans-serif" font-size="22" font-weight="700" fill="#111111">GTM Engineer vs AI SDR</text>
<rect x="60" y="72" width="480" height="48" rx="8" fill="#FF4F1F" opacity="0.1"/>
<text x="300" y="102" text-anchor="middle" font-family="Sora, sans-serif" font-size="20" font-weight="600" fill="#FF4F1F">GTM Engineer</text>
<rect x="660" y="72" width="480" height="48" rx="8" fill="#d8431a" opacity="0.1"/>
<text x="900" y="102" text-anchor="middle" font-family="Sora, sans-serif" font-size="20" font-weight="600" fill="#d8431a">AI</text>
<circle cx="600" cy="96" r="22" fill="#FF4F1F"/>
<text x="600" y="102" text-anchor="middle" font-family="Sora, sans-serif" font-size="13" font-weight="700" fill="white">VS</text>
<rect x="60" y="140" width="1080" height="56" rx="4" fill="white" opacity="0.5"/>
<text x="600" y="175" text-anchor="middle" font-family="Plus Jakarta Sans, sans-serif" font-size="13" font-weight="500" fill="#6B6B6B">The &quot;Will AI Take My Job</text>
<rect x="366.0" y="158" width="154.0" height="20" rx="4" fill="#FF4F1F" opacity="0.8"/>
<rect x="680" y="158" width="112.0" height="20" rx="4" fill="#d8431a" opacity="0.65"/>
<line x1="600" y1="150" x2="600" y2="186" stroke="#E5E5E5" stroke-width="1"/>
<text x="600" y="231" text-anchor="middle" font-family="Plus Jakarta Sans, sans-serif" font-size="13" font-weight="500" fill="#6B6B6B">What AI SDRs Do</text>
<rect x="396.0" y="214" width="124.0" height="20" rx="4" fill="#FF4F1F" opacity="0.8"/>
<rect x="680" y="214" width="134.0" height="20" rx="4" fill="#d8431a" opacity="0.65"/>
<line x1="600" y1="206" x2="600" y2="242" stroke="#E5E5E5" stroke-width="1"/>
<rect x="60" y="252" width="1080" height="56" rx="4" fill="white" opacity="0.5"/>
<text x="600" y="287" text-anchor="middle" font-family="Plus Jakarta Sans, sans-serif" font-size="13" font-weight="500" fill="#6B6B6B">What GTM Engineers Build</text>
<rect x="342.0" y="270" width="178.0" height="20" rx="4" fill="#FF4F1F" opacity="0.8"/>
<rect x="680" y="270" width="182.0" height="20" rx="4" fill="#d8431a" opacity="0.65"/>
<line x1="600" y1="262" x2="600" y2="298" stroke="#E5E5E5" stroke-width="1"/>
<text x="600" y="343" text-anchor="middle" font-family="Plus Jakarta Sans, sans-serif" font-size="13" font-weight="500" fill="#6B6B6B">Convergence, Not Replace</text>
<rect x="368.0" y="326" width="152.0" height="20" rx="4" fill="#FF4F1F" opacity="0.8"/>
<rect x="680" y="326" width="150.0" height="20" rx="4" fill="#d8431a" opacity="0.65"/>
<line x1="600" y1="318" x2="600" y2="354" stroke="#E5E5E5" stroke-width="1"/>
<rect x="60" y="364" width="1080" height="56" rx="4" fill="white" opacity="0.5"/>
<text x="600" y="399" text-anchor="middle" font-family="Plus Jakarta Sans, sans-serif" font-size="13" font-weight="500" fill="#6B6B6B">Where the Roles Differ</text>
<rect x="426.0" y="382" width="94.0" height="20" rx="4" fill="#FF4F1F" opacity="0.8"/>
<rect x="680" y="382" width="164.0" height="20" rx="4" fill="#d8431a" opacity="0.65"/>
<line x1="600" y1="374" x2="600" y2="410" stroke="#E5E5E5" stroke-width="1"/>
<text x="600" y="455" text-anchor="middle" font-family="Plus Jakarta Sans, sans-serif" font-size="13" font-weight="500" fill="#6B6B6B">Career Implications</text>
<rect x="332.0" y="438" width="188.0" height="20" rx="4" fill="#FF4F1F" opacity="0.8"/>
<rect x="680" y="438" width="158.0" height="20" rx="4" fill="#d8431a" opacity="0.65"/>
<line x1="600" y1="430" x2="600" y2="466" stroke="#E5E5E5" stroke-width="1"/>
<rect x="60" y="476" width="1080" height="56" rx="4" fill="white" opacity="0.5"/>
<text x="600" y="511" text-anchor="middle" font-family="Plus Jakarta Sans, sans-serif" font-size="13" font-weight="500" fill="#6B6B6B">Frequently Asked Questio</text>
<rect x="364.0" y="494" width="156.0" height="20" rx="4" fill="#FF4F1F" opacity="0.8"/>
<rect x="680" y="494" width="136.0" height="20" rx="4" fill="#d8431a" opacity="0.65"/>
<line x1="600" y1="486" x2="600" y2="522" stroke="#E5E5E5" stroke-width="1"/>
<text x="600" y="567" text-anchor="middle" font-family="Plus Jakarta Sans, sans-serif" font-size="13" font-weight="500" fill="#6B6B6B">Related Comparisons</text>
<rect x="380.0" y="550" width="140.0" height="20" rx="4" fill="#FF4F1F" opacity="0.8"/>
<rect x="680" y="550" width="118.0" height="20" rx="4" fill="#d8431a" opacity="0.65"/>
<line x1="600" y1="542" x2="600" y2="578" stroke="#E5E5E5" stroke-width="1"/>

<text x="1150" y="612" text-anchor="end" font-family="Plus Jakarta Sans, sans-serif" font-size="10" fill="#6B6B6B" opacity="0.4">Source: State of GTME Report 2026 (n=228)</text>
</svg>