<svg xmlns="http://www.w3.org/2000/svg" viewBox="0 0 1200 630" width="1200" height="630">
<rect width="1200" height="630" fill="#FAFAFA"/>
<rect x="0" y="0" width="1200" height="6" fill="#FF4F1F"/>
<text x="600" y="52" text-anchor="middle" font-family="Sora, sans-serif" font-size="26" font-weight="700" fill="#111111">How GTM Engineers Got Their Jobs</text>

<circle cx="420.0" cy="204" r="36" fill="#FF4F1F" opacity="0.9"/>
<text x="420.0" y="211" text-anchor="middle" font-family="Sora, sans-serif" font-size="22" font-weight="700" fill="white">1</text>
<text x="420.0" y="260" text-anchor="middle" font-family="Sora, sans-serif" font-size="14" font-weight="600" fill="#111111">121/228</text>
<text x="420.0" y="284" text-anchor="middle" font-family="Plus Jakarta Sans, sans-serif" font-size="11" fill="#6B6B6B">Self-Taught (53%)</text>
<line x1="460.0" y1="204" x2="480.0" y2="204" stroke="#FF4F1F" stroke-width="2" opacity="0.4"/>
<polygon points="480.0,199 490.0,204 480.0,209" fill="#FF4F1F" opacity="0.4"/>
<circle cx="600.0" cy="204" r="36" fill="#FF4F1F" opacity="0.8200000000000001"/>
<text x="600.0" y="211" text-anchor="middle" font-family="Sora, sans-serif" font-size="22" font-weight="700" fill="white">2</text>
<text x="600.0" y="260" text-anchor="middle" font-family="Sora, sans-serif" font-size="14" font-weight="600" fill="#111111">30%</text>
<text x="600.0" y="284" text-anchor="middle" font-family="Plus Jakarta Sans, sans-serif" font-size="11" fill="#6B6B6B">Agency / Freelance</text>
<line x1="640.0" y1="204" x2="660.0" y2="204" stroke="#FF4F1F" stroke-width="2" opacity="0.4"/>
<polygon points="660.0,199 670.0,204 660.0,209" fill="#FF4F1F" opacity="0.4"/>
<circle cx="780.0" cy="204" r="36" fill="#FF4F1F" opacity="0.74"/>
<text x="780.0" y="211" text-anchor="middle" font-family="Sora, sans-serif" font-size="22" font-weight="700" fill="white">3</text>
<text x="780.0" y="260" text-anchor="middle" font-family="Sora, sans-serif" font-size="14" font-weight="600" fill="#111111">84%</text>
<text x="780.0" y="284" text-anchor="middle" font-family="Plus Jakarta Sans, sans-serif" font-size="11" fill="#6B6B6B">Learned Clay First</text>
<rect x="100" y="520" width="1000" height="3" rx="1.5" fill="#FF4F1F" opacity="0.15"/>
</svg>