<svg xmlns="http://www.w3.org/2000/svg" viewBox="0 0 1200 630" width="1200" height="630">
<defs>
<pattern id="dots" x="0" y="0" width="40" height="40" patternUnits="userSpaceOnUse">
<circle cx="20" cy="20" r="1.2" fill="#FF4F1F" opacity="0.06"/>
</pattern>
</defs>
<rect width="1200" height="630" fill="#FAFAFA"/>
<rect width="1200" height="630" fill="url(#dots)"/>
<rect x="0" y="0" width="1200" height="5" fill="#FF4F1F"/>
<text x="60" y="50" font-family="Sora, sans-serif" font-size="24" font-weight="700" fill="#111111">GTM Engineer Salary Calculator (2026 Data)</text>

<line x1="450.0" y1="205" x2="450.0" y2="486" stroke="#E5E5E5" stroke-width="0.5" stroke-dasharray="3,3"/>
<line x1="620.0" y1="205" x2="620.0" y2="486" stroke="#E5E5E5" stroke-width="0.5" stroke-dasharray="3,3"/>
<line x1="790.0" y1="205" x2="790.0" y2="486" stroke="#E5E5E5" stroke-width="0.5" stroke-dasharray="3,3"/>

<text x="268" y="230" text-anchor="end" font-family="Plus Jakarta Sans, sans-serif" font-size="13" font-weight="500" fill="#111111">How This Calculator Works</text>
<rect x="280" y="214" width="448.8" height="24" rx="4" fill="#FF4F1F" opacity="0.9"/>
<text x="738.8" y="232" font-family="Sora, sans-serif" font-size="12" font-weight="600" fill="#6B6B6B">76%</text>
<text x="268" y="276" text-anchor="end" font-family="Plus Jakarta Sans, sans-serif" font-size="13" font-weight="500" fill="#111111">Understanding Your Salary Esti</text>
<rect x="280" y="260" width="251.6" height="24" rx="4" fill="#FF4F1F" opacity="0.8400000000000001"/>
<text x="541.6" y="278" font-family="Sora, sans-serif" font-size="12" font-weight="600" fill="#6B6B6B">47%</text>
<text x="268" y="322" text-anchor="end" font-family="Plus Jakarta Sans, sans-serif" font-size="13" font-weight="500" fill="#111111">Key Factors That Shift Your Ra</text>
<rect x="280" y="306" width="306.0" height="24" rx="4" fill="#FF4F1F" opacity="0.78"/>
<text x="596.0" y="324" font-family="Sora, sans-serif" font-size="12" font-weight="600" fill="#6B6B6B">55%</text>
<text x="268" y="368" text-anchor="end" font-family="Plus Jakarta Sans, sans-serif" font-size="13" font-weight="500" fill="#111111">Negotiation Tips Based on Your</text>
<rect x="280" y="352" width="306.0" height="24" rx="4" fill="#FF4F1F" opacity="0.72"/>
<text x="596.0" y="370" font-family="Sora, sans-serif" font-size="12" font-weight="600" fill="#6B6B6B">55%</text>
<text x="268" y="414" text-anchor="end" font-family="Plus Jakarta Sans, sans-serif" font-size="13" font-weight="500" fill="#111111">Related Salary Data</text>
<rect x="280" y="398" width="380.8" height="24" rx="4" fill="#FF4F1F" opacity="0.66"/>
<text x="670.8" y="416" font-family="Sora, sans-serif" font-size="12" font-weight="600" fill="#6B6B6B">66%</text>
<text x="268" y="460" text-anchor="end" font-family="Plus Jakarta Sans, sans-serif" font-size="13" font-weight="500" fill="#111111">Get the Weekly Pulse</text>
<rect x="280" y="444" width="591.6" height="24" rx="4" fill="#FF4F1F" opacity="0.6000000000000001"/>
<text x="881.6" y="462" font-family="Sora, sans-serif" font-size="12" font-weight="600" fill="#6B6B6B">97%</text>

<text x="1150" y="612" text-anchor="end" font-family="Plus Jakarta Sans, sans-serif" font-size="10" fill="#6B6B6B" opacity="0.4">Source: State of GTME Report 2026 (n=228)</text>
</svg>