<svg xmlns="http://www.w3.org/2000/svg" viewBox="0 0 1200 630" width="1200" height="630">
<rect width="1200" height="630" fill="#FAFAFA"/>
<rect x="0" y="0" width="1200" height="5" fill="#FF4F1F"/>
<rect x="1060" y="24" width="100" height="30" rx="15" fill="#FF4F1F" opacity="0.1"/>
<text x="1110.0" y="44" text-anchor="middle" font-family="Plus Jakarta Sans, sans-serif" font-size="12" font-weight="600" fill="#FF4F1F" letter-spacing="0.5">GLOSSARY</text>
<text x="60" y="100" font-family="Sora, sans-serif" font-size="36" font-weight="700" fill="#111111">What is Waterfall Enrichment?</text>
<rect x="60" y="152" width="80" height="4" rx="2" fill="#FF4F1F" opacity="0.6"/>
<rect x="60" y="178" width="103.0" height="32" rx="16" fill="#fff0ed" stroke="#FF4F1F" stroke-width="0.5" opacity="0.7"/>
<text x="111.5" y="199" text-anchor="middle" font-family="Plus Jakarta Sans, sans-serif" font-size="12" font-weight="500" fill="#FF4F1F">Learn More</text>
<rect x="175.0" y="178" width="193.0" height="32" rx="16" fill="#fff0ed" stroke="#FF4F1F" stroke-width="0.5" opacity="0.7"/>
<text x="271.5" y="199" text-anchor="middle" font-family="Plus Jakarta Sans, sans-serif" font-size="12" font-weight="500" fill="#FF4F1F">Related Glossary Terms</text>
<rect x="380.0" y="178" width="178.0" height="32" rx="16" fill="#fff0ed" stroke="#FF4F1F" stroke-width="0.5" opacity="0.7"/>
<text x="469.0" y="199" text-anchor="middle" font-family="Plus Jakarta Sans, sans-serif" font-size="12" font-weight="500" fill="#FF4F1F">Get the Weekly Pulse</text>
<rect x="570.0" y="178" width="110.5" height="32" rx="16" fill="#fff0ed" stroke="#FF4F1F" stroke-width="0.5" opacity="0.7"/>
<text x="625.25" y="199" text-anchor="middle" font-family="Plus Jakarta Sans, sans-serif" font-size="12" font-weight="500" fill="#FF4F1F">Clay Review</text>
<rect x="692.5" y="178" width="155.5" height="32" rx="16" fill="#fff0ed" stroke="#FF4F1F" stroke-width="0.5" opacity="0.7"/>
<text x="770.25" y="199" text-anchor="middle" font-family="Plus Jakarta Sans, sans-serif" font-size="12" font-weight="500" fill="#FF4F1F">FullEnrich Review</text>
<rect x="860.0" y="178" width="185.5" height="32" rx="16" fill="#fff0ed" stroke="#FF4F1F" stroke-width="0.5" opacity="0.7"/>
<text x="952.75" y="199" text-anchor="middle" font-family="Plus Jakarta Sans, sans-serif" font-size="12" font-weight="500" fill="#FF4F1F">Data Enrichment Tools</text>
<rect x="60" y="220" width="133.0" height="32" rx="16" fill="#fff0ed" stroke="#FF4F1F" stroke-width="0.5" opacity="0.7"/>
<text x="126.5" y="241" text-anchor="middle" font-family="Plus Jakarta Sans, sans-serif" font-size="12" font-weight="500" fill="#FF4F1F">Glossary Index</text>
<rect x="205.0" y="220" width="140.5" height="32" rx="16" fill="#fff0ed" stroke="#FF4F1F" stroke-width="0.5" opacity="0.7"/>
<text x="275.25" y="241" text-anchor="middle" font-family="Plus Jakarta Sans, sans-serif" font-size="12" font-weight="500" fill="#FF4F1F">Data Enrichment</text>
<text x="1150" y="612" text-anchor="end" font-family="Plus Jakarta Sans, sans-serif" font-size="10" fill="#6B6B6B" opacity="0.35">GTME Pulse</text>
</svg>