<svg xmlns="http://www.w3.org/2000/svg" viewBox="0 0 1200 630" fill="none">
  <rect width="1200" height="630" fill="#FAFAFA"/>
  <!-- Title -->
  <text x="100" y="70" fill="#111111" font-family="system-ui,sans-serif" font-size="24" font-weight="700">GTM Engineer Job Board</text>
  <text x="100" y="100" fill="#6B6B6B" font-family="system-ui,sans-serif" font-size="15">Live job postings updated twice weekly</text>
  <rect x="100" y="118" width="60" height="3" rx="1.5" fill="#FF4F1F"/>
  <!-- Stats bar -->
  <rect x="100" y="150" width="1000" height="50" rx="8" fill="#FFFFFF" stroke="#E5E5E5" stroke-width="1"/>
  <text x="200" y="180" fill="#FF4F1F" font-family="system-ui,sans-serif" font-size="18" font-weight="700" text-anchor="middle">3,342</text>
  <text x="200" y="195" fill="#9B9B9B" font-family="system-ui,sans-serif" font-size="10">Open Roles</text>
  <line x1="330" y1="160" x2="330" y2="190" stroke="#F0F0F0" stroke-width="1"/>
  <text x="460" y="180" fill="#FF4F1F" font-family="system-ui,sans-serif" font-size="18" font-weight="700" text-anchor="middle">$135K</text>
  <text x="460" y="195" fill="#9B9B9B" font-family="system-ui,sans-serif" font-size="10">Median Salary</text>
  <line x1="590" y1="160" x2="590" y2="190" stroke="#F0F0F0" stroke-width="1"/>
  <text x="720" y="180" fill="#FF4F1F" font-family="system-ui,sans-serif" font-size="18" font-weight="700" text-anchor="middle">62%</text>
  <text x="720" y="195" fill="#9B9B9B" font-family="system-ui,sans-serif" font-size="10">Remote</text>
  <line x1="850" y1="160" x2="850" y2="190" stroke="#F0F0F0" stroke-width="1"/>
  <text x="980" y="180" fill="#FF4F1F" font-family="system-ui,sans-serif" font-size="18" font-weight="700" text-anchor="middle">+12%</text>
  <text x="980" y="195" fill="#9B9B9B" font-family="system-ui,sans-serif" font-size="10">WoW Change</text>
  <!-- Job cards -->
  <rect x="100" y="220" width="1000" height="90" rx="8" fill="#FFFFFF" stroke="#E5E5E5" stroke-width="1.5"/>
  <circle cx="150" cy="265" r="22" fill="#FFF0EB"/>
  <text x="150" y="271" fill="#FF4F1F" font-family="system-ui,sans-serif" font-size="14" font-weight="700" text-anchor="middle">C</text>
  <text x="190" y="252" fill="#111111" font-family="system-ui,sans-serif" font-size="16" font-weight="600">Senior GTM Engineer</text>
  <text x="190" y="274" fill="#6B6B6B" font-family="system-ui,sans-serif" font-size="13">Clay  |  San Francisco, CA  |  Remote OK</text>
  <rect x="190" y="282" width="80" height="20" rx="4" fill="#FFF0EB"/>
  <text x="230" y="296" fill="#FF4F1F" font-family="system-ui,sans-serif" font-size="11" font-weight="500" text-anchor="middle">$180K-$220K</text>
  <rect x="960" y="248" width="100" height="34" rx="6" fill="#FF4F1F"/>
  <text x="1010" y="270" fill="#FFFFFF" font-family="system-ui,sans-serif" font-size="12" font-weight="600" text-anchor="middle">Apply</text>
  <rect x="100" y="325" width="1000" height="90" rx="8" fill="#FFFFFF" stroke="#E5E5E5" stroke-width="1.5"/>
  <circle cx="150" cy="370" r="22" fill="#F0F0F0"/>
  <text x="150" y="376" fill="#6B6B6B" font-family="system-ui,sans-serif" font-size="14" font-weight="700" text-anchor="middle">A</text>
  <text x="190" y="357" fill="#111111" font-family="system-ui,sans-serif" font-size="16" font-weight="600">GTM Engineer</text>
  <text x="190" y="379" fill="#6B6B6B" font-family="system-ui,sans-serif" font-size="13">Apollo.io  |  Remote  |  Full-time</text>
  <rect x="190" y="387" width="80" height="20" rx="4" fill="#FFF0EB"/>
  <text x="230" y="401" fill="#FF4F1F" font-family="system-ui,sans-serif" font-size="11" font-weight="500" text-anchor="middle">$140K-$170K</text>
  <rect x="960" y="353" width="100" height="34" rx="6" fill="#FFFFFF" stroke="#FF4F1F" stroke-width="1.5"/>
  <text x="1010" y="375" fill="#FF4F1F" font-family="system-ui,sans-serif" font-size="12" font-weight="600" text-anchor="middle">Apply</text>
  <rect x="100" y="430" width="1000" height="90" rx="8" fill="#FFFFFF" stroke="#E5E5E5" stroke-width="1.5"/>
  <circle cx="150" cy="475" r="22" fill="#F0F0F0"/>
  <text x="150" y="481" fill="#6B6B6B" font-family="system-ui,sans-serif" font-size="14" font-weight="700" text-anchor="middle">S</text>
  <text x="190" y="462" fill="#111111" font-family="system-ui,sans-serif" font-size="16" font-weight="600">Lead GTM Engineer</text>
  <text x="190" y="484" fill="#6B6B6B" font-family="system-ui,sans-serif" font-size="13">Series B SaaS  |  NYC  |  Hybrid</text>
  <rect x="190" y="492" width="80" height="20" rx="4" fill="#FFF0EB"/>
  <text x="230" y="506" fill="#FF4F1F" font-family="system-ui,sans-serif" font-size="11" font-weight="500" text-anchor="middle">$200K-$250K</text>
  <rect x="960" y="458" width="100" height="34" rx="6" fill="#FFFFFF" stroke="#FF4F1F" stroke-width="1.5"/>
  <text x="1010" y="480" fill="#FF4F1F" font-family="system-ui,sans-serif" font-size="12" font-weight="600" text-anchor="middle">Apply</text>
  <!-- Bottom note -->
  <text x="600" y="575" fill="#6B6B6B" font-family="system-ui,sans-serif" font-size="13" text-anchor="middle">Scraped from major job boards, updated Tue + Fri</text>
</svg>